<svg width="156" height="38" viewBox="0 0 156 38" fill="none" xmlns="http://www.w3.org/2000/svg">
<g clip-path="url(#clip0_5463_2182)">
<path d="M141.199 33.0293C145.323 33.0293 148.663 29.6677 148.665 25.5213C148.665 21.3731 145.323 18.0132 141.199 18.0114C137.075 18.0114 133.735 21.3749 133.735 25.5213C133.735 29.6677 137.077 33.0293 141.199 33.0293ZM139.503 21.0804V29.9622C137.728 29.2762 136.47 27.5487 136.466 25.5213C136.471 23.4939 137.73 21.7664 139.503 21.0786V21.0804ZM142.891 21.0786C144.667 21.7628 145.928 23.4939 145.93 25.5213C145.926 27.5505 144.666 29.278 142.891 29.964V21.0786ZM144.726 5.80389C144.689 5.80389 144.259 5.78952 144.007 6.16663C140.826 10.929 137.286 16.266 137.286 16.266C143.719 13.3048 151.471 18.4119 151.33 25.5303H151.323C151.323 25.6811 151.321 25.8302 151.312 25.981C151.078 31.1097 146.899 35.3136 141.8 35.5488C139.039 35.6745 136.42 34.6922 134.424 32.7761C132.849 31.2641 131.875 29.5168 131.517 27.4068C131.467 27.0908 131.305 26.8699 131.034 26.8681H129.616C129.338 26.8681 129.211 27.1195 129.252 27.3943C130.314 34.8054 137.707 39.099 144.591 37.5475C144.6 37.5457 144.609 37.5457 144.617 37.5403C150.321 36.2312 154.568 31.1833 154.568 25.1586C154.558 23.1563 154.163 20.9062 152.646 18.4729C150.978 15.8027 148.238 14.3678 147.245 13.9261C145.064 12.9528 142.866 12.942 142.02 12.9761C142.02 12.9761 143.445 10.6093 143.909 9.93053H151.969C152.613 9.93053 153.144 9.88564 153.167 9.88384C154.068 9.80663 154.652 9.63064 154.993 9.33075C155.47 8.91773 155.757 8.02344 155.891 6.5186C155.891 6.5186 156.002 5.44294 156.002 5.25438C156.002 4.73361 155.68 4.39781 155.181 4.39781C154.681 4.39781 154.361 4.80006 154.226 5.57582C154.186 5.76079 154.127 5.80209 154.07 5.80209H144.726V5.80389ZM131.437 4.45869e-07C131.134 4.45869e-07 130.532 -0.00359108 130.328 0.633902C130.248 0.773971 129.818 3.93989 129.597 5.16998C129.484 5.78234 129.431 6.20793 129.431 6.50603C129.431 7.11838 129.83 7.54756 130.403 7.54756C130.486 7.54756 131.091 7.54757 131.293 6.97831C131.557 6.22768 131.969 4.47143 131.987 4.41577C132.057 4.18232 132.135 4.22362 132.639 4.21823H140.581C140.07 4.98322 139.321 6.10916 138.491 7.35183C136.204 10.7799 133.612 14.6641 133.453 14.9173C133.408 14.9892 133.324 15.1185 133.212 15.2945C132.689 16.1079 131.619 17.8049 130.962 18.9578C130.216 20.2525 129.604 21.8436 129.215 23.4562C129.154 23.7094 129.307 23.9482 129.566 23.9482H130.964C131.13 23.9482 131.35 23.8405 131.478 23.4616C132.183 21.3767 132.496 20.802 133.379 19.22C133.574 18.8716 133.853 18.4622 134.222 17.8911C135.509 15.8996 139.553 9.83177 140.883 7.83848C141.129 7.47035 141.274 7.25306 141.279 7.24408C143.925 3.0887 144.534 2.05614 144.762 1.64312C144.835 1.51203 144.928 1.33245 145.012 1.16904C145.071 1.05591 145.112 0.953547 145.117 0.808091C145.137 0.321441 144.785 4.45869e-07 144.378 4.45869e-07H131.437Z" fill="white"/>
<path d="M119.494 0H118.223V38H119.494V0Z" fill="white"/>
<path d="M2.10304 14.3479C2.09947 12.2827 1.02655 12.4228 0.00183105 12.3995V11.8051C0.890872 11.8446 1.80312 11.8428 2.69395 11.841C3.65261 11.8392 4.95404 11.7943 6.64286 11.7925C12.5537 11.7817 15.7779 15.7432 15.785 19.8088C15.7886 22.0822 14.4782 27.8017 6.40186 27.816C5.23789 27.8178 4.1614 27.7747 3.09205 27.7765C2.06376 27.7783 1.05868 27.8053 0.0321799 27.8286V27.2288C1.39788 27.087 2.06198 27.0421 2.12625 25.4816L2.10482 14.3461L2.10304 14.3479ZM4.35956 25.1116C4.36313 26.8804 5.62172 27.0816 6.73748 27.0798C11.6701 27.0708 13.2785 23.3266 13.2714 19.9057C13.2625 15.6139 10.5204 12.5198 6.11444 12.527C5.17898 12.527 4.74696 12.5952 4.33457 12.6221L4.35778 25.1098L4.35956 25.1116Z" fill="white"/>
<path d="M16.599 27.2001H17.031C17.6701 27.1983 18.1271 27.1965 18.1254 26.4369L18.1129 20.2182C18.1111 19.2054 17.7701 19.0689 16.9221 18.6146V18.2465C17.995 17.9214 19.2697 17.4868 19.3625 17.4132C19.5232 17.3234 19.6589 17.3001 19.7731 17.3001C19.8874 17.3001 19.9338 17.4366 19.9338 17.6197L19.9499 26.4333C19.9499 27.1929 20.4533 27.1911 21.0924 27.1911H21.4798V27.7891C20.7032 27.7891 19.9052 27.746 19.0858 27.7478C18.2628 27.7478 17.4416 27.7747 16.599 27.7981V27.1983V27.2001ZM19.018 13.7678C18.4235 13.7678 17.8986 13.2183 17.8969 12.6221C17.8969 12.0475 18.4413 11.516 19.0144 11.5142C19.6053 11.5142 20.1337 11.9954 20.1355 12.6168C20.1355 13.2363 19.6339 13.7642 19.018 13.766V13.7678Z" fill="white"/>
<path d="M23.6381 20.3455C23.6381 19.4979 23.3846 19.268 22.3117 18.837V18.3971C23.29 18.0738 24.2255 17.7721 25.3198 17.2909C25.3894 17.2909 25.4555 17.334 25.4555 17.5171L25.4591 19.013C26.7605 18.0666 27.878 17.2855 29.408 17.2837C31.3485 17.2801 32.034 18.7006 32.0376 20.4909L32.0483 26.4115C32.0483 27.1711 32.5535 27.1693 33.1891 27.1693H33.6015V27.7673C32.7999 27.7673 32.0019 27.7242 31.1825 27.726C30.3577 27.726 29.5365 27.753 28.7153 27.7763V27.1765H29.1259C29.7632 27.1765 30.2185 27.1747 30.2167 26.4151L30.206 20.473C30.2042 19.1621 29.4062 18.521 28.103 18.5228C27.3728 18.5228 26.2106 19.1226 25.4555 19.6308L25.468 26.4223C25.468 27.1819 25.9732 27.1801 26.6141 27.1801H27.0247V27.7781C26.2249 27.7781 25.4234 27.735 24.6022 27.7368C23.7827 27.7368 22.958 27.7637 22.1385 27.7871V27.1873H22.5509C23.1883 27.1873 23.6435 27.1855 23.6435 26.4259L23.6328 20.3437L23.6381 20.3455Z" fill="white"/>
<path d="M35.3296 21.4269C35.2814 21.6352 35.2814 21.9782 35.3314 22.7593C35.4688 24.9394 36.8666 26.728 38.6911 26.7244C39.9462 26.7226 40.928 26.0294 41.7707 25.1782L42.0902 25.4997C41.0423 26.9021 39.7444 28.0981 37.8753 28.1017C34.2442 28.1089 33.5086 24.5748 33.5069 23.1059C33.4979 18.6058 36.506 17.2697 38.1038 17.2661C39.9533 17.2625 41.942 18.428 41.9688 20.8612C41.9688 21.0013 41.9688 21.1378 41.9492 21.276L41.7421 21.4125L35.3314 21.4251L35.3296 21.4269ZM39.3677 20.6834C39.9354 20.6834 40.0015 20.3836 40.0015 20.1088C39.9997 18.9362 39.291 17.9952 38.0128 17.9988C36.6221 18.0006 35.667 19.0367 35.3956 20.6906L39.3677 20.6834Z" fill="white"/>
<path d="M42.5027 27.15H43.1222C43.7595 27.1482 44.2129 27.1464 44.2129 26.3868L44.2004 19.9383C44.2004 19.2289 43.356 19.0907 43.0133 18.9057V18.5645C44.6771 17.848 45.5893 17.25 45.7964 17.25C45.9321 17.25 45.9999 17.3165 46.0017 17.5481L46.0053 19.6132H46.0553C46.6212 18.7171 47.5781 17.2482 48.9706 17.2446C49.54 17.2446 50.2702 17.6289 50.272 18.4586C50.272 19.0781 49.8435 19.6312 49.2026 19.633C48.4939 19.633 48.4921 19.0817 47.6959 19.0835C47.3085 19.0835 46.0303 19.6132 46.0339 20.9942L46.0446 26.385C46.0446 27.1446 46.5016 27.1428 47.1407 27.1428H48.4189V27.739C47.1621 27.7193 46.207 27.6977 45.2252 27.6995C44.2879 27.6995 43.331 27.7283 42.508 27.7498V27.15H42.5027Z" fill="white"/>
<path d="M51.2841 24.5408C51.5858 26.0528 52.5017 27.3386 54.1673 27.3368C55.5115 27.335 56.0078 26.5054 56.0078 25.7027C56.0025 22.9947 51.0342 23.8728 51.0271 20.1789C51.0253 18.8914 52.05 17.2393 54.56 17.2339C55.2884 17.2339 56.2703 17.4368 57.1629 17.8929L57.3271 20.2346H56.8005C56.5702 18.7908 55.7704 17.963 54.3101 17.9648C53.3961 17.9648 52.532 18.4999 52.5338 19.484C52.5391 22.1722 57.8323 21.3354 57.8377 24.9377C57.8413 26.4515 56.6344 28.0623 53.9173 28.0677C53.0015 28.0677 51.9304 27.7516 51.1306 27.2955L50.8735 24.654L51.2841 24.539V24.5408Z" fill="white"/>
<path d="M78.4284 15.8097H77.859C77.4216 13.1269 75.5239 12.0512 72.9692 12.0566C70.3432 12.062 66.5335 13.8362 66.5442 19.3438C66.5531 23.9858 69.8504 27.3079 73.362 27.3008C75.6203 27.2972 77.4912 25.7331 77.9429 23.3196L78.4641 23.456L77.9482 26.8087C76.9913 27.4103 74.4099 28.0316 72.9014 28.0352C67.5636 28.046 64.1824 24.5838 64.1716 19.421C64.1627 14.7143 68.3294 11.3293 72.805 11.3203C74.6563 11.3167 76.4343 11.9129 78.1928 12.5289L78.4267 15.8097H78.4284Z" fill="white"/>
<path d="M79.2711 27.0799H79.7067C80.3458 27.0781 80.8028 27.0763 80.8011 26.3167L80.7778 13.5345C80.7743 12.0386 80.4333 11.9937 79.5657 11.7441V11.376C80.4761 11.0761 81.433 10.6631 81.9132 10.3829C82.1632 10.2464 82.3471 10.1279 82.4149 10.1279C82.5524 10.1279 82.5952 10.2662 82.5952 10.4512L82.6256 26.3113C82.6256 27.0709 83.1308 27.0691 83.7699 27.0691H84.1573V27.6671C83.3843 27.6671 82.5845 27.624 81.7597 27.6258C80.9403 27.6258 80.1191 27.6527 79.2711 27.6761V27.0763V27.0799Z" fill="white"/>
<path d="M93.926 26.3869C93.926 26.8035 94.176 26.8232 94.5652 26.8232C94.8365 26.8232 95.1828 26.8017 95.4792 26.7999V27.2812C94.4973 27.3763 92.6264 27.8594 92.189 27.9977L92.0766 27.9294L92.073 26.0726C90.7073 27.1986 89.6558 28.003 88.0348 28.0048C86.803 28.0066 85.5266 27.2075 85.523 25.2807L85.5123 19.4014C85.5123 18.8034 85.4159 18.2287 84.1412 18.1174V17.681C84.9642 17.6541 86.7851 17.5176 87.0833 17.5158C87.3368 17.5158 87.3368 17.6739 87.3386 18.1803L87.3493 24.1009C87.3493 24.7886 87.3546 26.764 89.3398 26.7604C90.1128 26.7604 91.1393 26.1588 92.0944 25.3597L92.0819 19.1787C92.0819 18.7226 90.9858 18.473 90.1664 18.2413V17.8265C92.2194 17.6846 93.4976 17.5015 93.7243 17.5015C93.9064 17.5015 93.9064 17.6595 93.9082 17.9145L93.9243 26.3833L93.926 26.3869Z" fill="white"/>
<path d="M98.4515 18.8014C99.3637 18.0238 100.596 17.1475 101.849 17.1457C104.496 17.1403 106.099 19.4586 106.105 21.9583C106.11 24.9626 103.925 27.9777 100.658 27.9831C98.971 27.9867 98.0802 27.4389 97.4857 27.1875L96.802 27.7137L96.3253 27.4641C96.5235 26.1083 96.6359 24.774 96.6324 23.3751L96.6145 13.5057C96.6109 12.0098 96.2717 11.9649 95.4023 11.7153V11.3472C96.3164 11.0473 97.2715 10.6343 97.7517 10.3541C98.0016 10.2176 98.1837 10.0991 98.2551 10.0991C98.3908 10.0991 98.4354 10.2374 98.4354 10.4224L98.4515 18.7996V18.8014ZM98.464 25.0488C98.464 25.9197 99.2888 27.3887 100.822 27.3851C103.264 27.3797 104.286 24.9662 104.282 22.9226C104.277 20.4445 102.4 18.3829 100.622 18.3847C99.7726 18.3847 99.0674 18.9396 98.4533 19.4712L98.464 25.047V25.0488Z" fill="white"/>
<path d="M106.091 14.8525C106.839 14.8525 107.401 15.429 107.403 16.167C107.403 16.9069 106.844 17.4797 106.096 17.4815C105.35 17.4815 104.787 16.9123 104.786 16.1724C104.786 15.4344 105.344 14.8543 106.091 14.8525ZM106.094 17.2373C106.68 17.2373 107.13 16.7345 107.128 16.1688C107.128 15.6032 106.685 15.0968 106.091 15.0986C105.503 15.0986 105.055 15.6086 105.057 16.1724C105.057 16.7399 105.507 17.2373 106.094 17.2373ZM105.444 16.8674V16.8027C105.603 16.7812 105.635 16.7866 105.635 16.6842V15.7109C105.633 15.5726 105.619 15.5259 105.446 15.5331V15.4667H106.117C106.344 15.4667 106.556 15.578 106.558 15.8151C106.558 16.0144 106.431 16.1563 106.249 16.2137L106.464 16.5154C106.565 16.6501 106.678 16.7812 106.755 16.8261V16.8674H106.499C106.378 16.8674 106.271 16.6088 106.03 16.264H105.885V16.6986C105.885 16.7884 105.916 16.7812 106.074 16.8027V16.8674H105.442H105.444ZM105.885 16.1706H106.039C106.208 16.1706 106.285 16.0431 106.285 15.8366C106.285 15.6301 106.16 15.5547 106.03 15.5547H105.885V16.1724V16.1706Z" fill="white"/>
</g>
<defs>
<clipPath id="clip0_5463_2182">
<rect width="156" height="38" fill="white"/>
</clipPath>
</defs>
</svg>
